<svg width="140" height="101" viewBox="0 0 140 101" fill="none" xmlns="http://www.w3.org/2000/svg">
<mask id="path-1-inside-1_114_438" fill="white">
<path d="M139.374 17.8339C118.017 6.26453 94.0499 0.366617 69.7632 0.704029C45.4765 1.04144 21.6824 7.6029 0.655442 19.7611L47.4724 100.728C54.65 96.578 62.7722 94.3383 71.0624 94.2231C79.3527 94.1079 87.534 96.1212 94.8241 100.07L139.374 17.8339Z"/>
</mask>
<path d="M139.374 17.8339C118.017 6.26453 94.0499 0.366617 69.7632 0.704029C45.4765 1.04144 21.6824 7.6029 0.655442 19.7611L47.4724 100.728C54.65 96.578 62.7722 94.3383 71.0624 94.2231C79.3527 94.1079 87.534 96.1212 94.8241 100.07L139.374 17.8339Z" fill="#0B0B0B" fill-opacity="0.63" stroke="#151515" stroke-opacity="0.19" stroke-width="2" mask="url(#path-1-inside-1_114_438)"/>
</svg>